<?xml version="1.0" standalone="no"?>
<!DOCTYPE svg PUBLIC "-//W3C//DTD SVG 20010904//EN"
 "http://www.w3.org/TR/2001/REC-SVG-20010904/DTD/svg10.dtd">
<svg version="1.0" xmlns="http://www.w3.org/2000/svg"
 width="840.000000pt" height="840.000000pt" viewBox="0 0 840.000000 840.000000"
 preserveAspectRatio="xMidYMid meet">
<metadata>
Created by potrace 1.10, written by Peter Selinger 2001-2011
</metadata>
<g transform="translate(0.000000,840.000000) scale(0.100000,-0.100000)"
fill="#000000" stroke="none">
<path d="M3875 8150 c-82 -4 -174 -13 -204 -19 -29 -6 -74 -11 -98 -11 -25 0
-72 -6 -106 -14 -34 -8 -96 -22 -137 -31 -85 -18 -173 -41 -240 -61 -87 -27
-265 -85 -285 -93 -11 -5 -40 -16 -65 -26 -161 -61 -392 -174 -559 -272 -67
-40 -125 -73 -128 -73 -3 0 -22 -13 -43 -30 -21 -16 -41 -30 -44 -30 -7 0
-228 -167 -346 -261 -164 -130 -512 -501 -619 -659 -13 -19 -27 -37 -31 -40
-15 -10 -158 -227 -224 -340 -36 -63 -71 -122 -76 -130 -6 -8 -13 -22 -16 -30
-3 -8 -10 -22 -15 -30 -5 -8 -12 -22 -15 -30 -8 -20 -43 -91 -53 -110 -9 -15
-25 -52 -54 -120 -8 -19 -21 -51 -29 -70 -34 -78 -92 -237 -105 -285 -3 -11
-11 -42 -19 -70 -8 -27 -21 -72 -29 -100 -7 -27 -21 -75 -29 -106 -9 -31 -16
-67 -16 -81 0 -14 -7 -45 -15 -68 -8 -23 -15 -59 -15 -79 0 -20 -5 -52 -10
-71 -10 -33 -18 -103 -40 -365 -11 -142 -12 -396 0 -555 17 -230 29 -345 40
-380 5 -19 10 -51 10 -71 0 -20 7 -56 15 -79 8 -23 15 -54 15 -68 0 -14 7 -50
16 -81 56 -198 70 -247 111 -369 38 -116 42 -126 97 -254 16 -39 172 -354 189
-383 7 -11 27 -47 46 -80 87 -151 280 -423 405 -570 182 -213 408 -432 596
-577 70 -54 200 -148 204 -148 5 0 108 -66 156 -99 14 -10 52 -33 85 -51 33
-19 78 -44 100 -56 136 -76 332 -165 510 -231 22 -8 55 -21 73 -29 18 -8 39
-14 47 -14 8 0 29 -6 47 -14 18 -7 58 -20 88 -29 231 -65 251 -70 300 -78 25
-4 70 -12 100 -18 213 -42 449 -61 730 -61 213 0 564 23 620 40 19 5 53 10 76
10 22 0 63 7 90 15 27 8 60 15 74 15 14 0 45 6 70 14 25 8 65 19 90 26 25 6
61 15 80 20 73 19 150 43 243 76 122 45 192 73 265 106 34 15 64 28 67 28 9 0
208 100 270 136 33 19 69 39 80 44 23 11 34 18 123 78 35 23 66 42 69 42 3 0
22 13 43 30 21 16 41 30 44 30 6 0 122 87 265 200 199 156 548 537 698 760 16
25 50 75 75 111 124 179 268 446 359 662 48 114 57 139 93 235 17 44 73 227
91 297 13 47 27 104 55 220 7 28 16 79 20 115 5 36 13 94 19 130 18 122 36
435 34 595 -4 275 -32 584 -68 745 -9 36 -15 78 -15 93 0 15 -7 44 -15 64 -8
19 -15 47 -15 62 -1 14 -7 37 -15 51 -8 14 -15 36 -15 50 0 14 -12 57 -26 95
-14 39 -29 84 -34 100 -10 36 -29 89 -46 130 -7 17 -20 50 -29 75 -61 158
-163 369 -251 517 -65 108 -82 136 -132 213 -181 277 -503 640 -753 848 -298
247 -666 476 -976 609 -80 34 -101 42 -143 58 -25 10 -54 21 -65 26 -70 30
-271 93 -390 122 -33 8 -82 21 -110 27 -27 7 -72 16 -100 20 -27 4 -77 12
-110 18 -222 42 -677 61 -1020 42z m770 -255 c186 -27 353 -59 465 -90 25 -7
74 -21 110 -30 201 -55 403 -133 625 -243 249 -123 503 -286 710 -458 151
-126 385 -356 470 -464 33 -41 62 -77 66 -80 11 -10 155 -206 190 -260 86
-129 119 -182 119 -185 0 -2 14 -28 31 -57 109 -185 253 -517 314 -723 10 -33
23 -78 30 -100 43 -137 85 -351 116 -590 18 -140 20 -198 17 -480 -3 -183 -10
-354 -17 -400 -43 -278 -48 -306 -87 -460 -27 -107 -68 -245 -90 -307 -79
-215 -107 -281 -199 -468 -71 -146 -102 -201 -146 -268 -16 -24 -29 -45 -29
-47 0 -5 -58 -90 -110 -165 -156 -220 -378 -465 -615 -678 -105 -94 -263 -214
-390 -296 -49 -32 -102 -67 -117 -77 -15 -11 -30 -19 -33 -19 -3 0 -24 -12
-48 -27 -71 -45 -358 -185 -443 -217 -173 -64 -216 -79 -269 -96 -237 -77
-464 -125 -736 -156 -117 -13 -209 -15 -460 -11 -173 3 -345 10 -384 16 -38 7
-113 19 -165 27 -111 18 -200 38 -325 71 -49 13 -106 28 -125 33 -39 9 -89 26
-138 46 -18 8 -38 14 -45 14 -14 0 -227 86 -324 130 -244 113 -459 241 -668
399 -186 139 -488 431 -635 611 -25 30 -47 57 -50 60 -29 25 -262 363 -284
410 -3 8 -15 29 -25 45 -107 167 -267 527 -335 755 -27 89 -48 166 -56 200 -5
19 -13 53 -18 75 -111 448 -131 956 -56 1415 29 174 60 316 89 411 8 26 15 54
15 63 0 8 6 30 14 48 7 18 23 62 34 98 65 204 162 428 267 615 19 33 39 69 45
80 6 11 19 34 30 50 11 17 23 36 27 44 13 28 156 236 206 300 211 271 454 511
722 712 109 82 289 203 335 226 8 4 38 20 65 36 132 79 373 192 535 252 19 7
53 20 75 28 123 47 404 121 575 151 282 50 364 55 735 51 185 -3 317 -9 390
-20z"/>
<path d="M3995 7791 c-38 -4 -90 -13 -115 -20 -25 -7 -70 -19 -100 -27 -127
-35 -293 -120 -410 -210 -84 -64 -195 -185 -265 -289 -41 -59 -102 -200 -124
-285 -32 -122 -35 -387 -5 -475 8 -22 14 -48 14 -57 0 -27 52 -141 94 -208 95
-148 218 -283 507 -553 139 -131 147 -140 163 -195 21 -75 20 -107 -3 -181
-22 -72 -56 -120 -107 -152 -33 -20 -50 -22 -168 -23 l-131 -1 -60 34 c-93 52
-202 141 -365 297 -139 134 -297 259 -415 330 -268 160 -633 164 -979 10 -163
-73 -367 -284 -516 -536 -33 -55 -60 -103 -60 -105 0 -3 -13 -33 -29 -68 -39
-82 -91 -216 -91 -233 0 -7 -6 -28 -14 -46 -13 -30 -28 -81 -61 -213 -59 -230
-78 -392 -78 -690 0 -312 25 -521 95 -775 11 -41 24 -88 28 -105 12 -43 36
-112 60 -175 12 -30 25 -66 29 -80 9 -26 82 -188 105 -230 125 -232 240 -416
329 -523 85 -103 245 -254 357 -338 63 -47 122 -89 130 -92 8 -4 29 -16 45
-27 17 -11 37 -23 45 -27 8 -4 35 -19 60 -33 55 -31 244 -112 320 -135 30 -10
73 -24 95 -31 55 -19 64 -18 76 8 5 13 16 34 24 47 7 13 11 29 9 35 -3 6 -66
56 -140 111 -74 55 -143 107 -152 115 -9 8 -42 35 -72 60 -118 95 -285 269
-379 395 -53 72 -100 137 -104 145 -9 17 -21 37 -58 95 -32 50 -132 254 -154
315 -129 355 -175 615 -175 980 0 361 44 633 130 809 36 74 31 92 -23 73 -52
-19 -60 -16 -52 16 3 15 13 34 21 43 8 8 14 21 14 27 0 6 5 14 11 17 12 8 49
-23 49 -41 0 -29 23 -22 75 22 30 26 55 53 55 59 0 7 -25 29 -55 50 -30 20
-55 39 -55 42 0 11 104 113 116 113 7 0 22 -15 33 -34 31 -50 47 -52 74 -8 40
63 40 80 1 97 -19 8 -34 21 -34 29 0 15 139 91 149 81 3 -3 4 -22 2 -41 l-3
-35 49 8 c100 17 189 -1 247 -49 58 -48 51 -88 -40 -223 -22 -33 -54 -80 -71
-105 -31 -46 -108 -202 -136 -275 -49 -131 -66 -186 -91 -300 -34 -152 -46
-266 -46 -431 0 -205 22 -364 77 -549 41 -142 175 -441 268 -600 19 -33 39
-69 45 -80 42 -79 158 -243 259 -365 64 -78 248 -264 296 -299 22 -16 49 -38
60 -48 31 -29 223 -158 286 -192 40 -21 73 -31 115 -33 57 -3 59 -2 62 24 4
33 -26 74 -164 230 -114 128 -195 234 -276 358 -165 256 -303 572 -382 875
-43 166 -67 301 -91 510 -9 77 -23 173 -31 213 -17 85 -18 138 -4 147 6 4 17
23 26 43 15 36 15 37 -13 59 -15 13 -31 23 -35 23 -5 0 -8 7 -8 15 0 9 9 15
23 15 36 0 49 15 54 64 6 48 6 48 -49 60 -23 5 -28 12 -28 36 0 35 15 38 61
14 17 -8 33 -13 37 -10 5 6 -12 93 -29 150 -12 39 -2 49 30 30 27 -16 29 -15
71 15 99 71 241 22 308 -107 36 -70 46 -127 34 -190 -39 -201 -43 -248 -43
-485 -1 -244 7 -330 47 -517 19 -91 69 -270 90 -325 9 -22 23 -58 31 -80 16
-40 134 -283 156 -320 117 -193 321 -426 481 -550 62 -48 70 -51 111 -35 37
14 33 25 -79 255 -134 272 -158 327 -191 440 -10 33 -23 78 -30 100 -17 53
-40 174 -60 310 -21 148 -44 260 -63 319 l-17 48 29 23 c32 25 28 41 -18 84
-14 14 -26 31 -26 38 0 8 19 41 42 74 46 64 44 76 -11 81 -40 4 -63 30 -43 50
10 10 17 10 32 0 36 -22 48 -15 55 32 10 65 1 84 -43 88 -32 3 -37 6 -37 28 0
24 3 25 49 22 l49 -3 -7 40 c-3 22 -14 57 -23 76 -28 59 -14 68 109 79 58 5
121 6 141 2 45 -8 96 -43 124 -84 48 -72 54 -124 59 -461 3 -303 23 -566 52
-701 6 -25 18 -81 27 -125 30 -142 59 -245 113 -400 53 -154 60 -173 103 -262
21 -47 39 -86 39 -88 0 -14 73 -124 79 -120 5 2 16 33 26 67 16 56 18 104 16
432 -1 203 -6 401 -12 440 -21 156 -23 220 -5 235 20 17 21 55 0 71 -36 30
-36 48 -3 94 39 56 34 79 -24 98 -25 8 -43 20 -45 31 -4 19 3 22 61 32 58 9
57 29 -4 85 -46 41 -52 51 -43 67 9 13 22 17 52 15 33 -2 41 1 45 19 7 27 -12
64 -53 103 -16 16 -30 37 -30 47 0 17 39 49 61 49 6 0 36 22 66 50 34 31 64
50 79 50 19 0 143 -84 209 -142 6 -5 -9 -26 -39 -54 -45 -43 -47 -48 -41 -82
9 -48 17 -55 48 -41 31 14 57 6 57 -19 0 -26 -20 -42 -51 -42 -34 0 -36 -3
-40 -60 l-4 -45 45 -5 c41 -5 45 -8 48 -34 4 -29 3 -29 -37 -22 -45 7 -45 7
-55 -56 -8 -44 12 -68 55 -68 42 0 36 -19 -22 -64 -60 -46 -60 -66 -1 -85 53
-16 53 -41 0 -56 -20 -5 -39 -13 -42 -16 -4 -3 10 -38 30 -78 l36 -71 -22 -38
c-22 -36 -23 -43 -24 -422 -1 -392 4 -480 29 -480 27 0 115 147 158 265 118
322 185 560 221 790 41 262 46 324 46 622 0 337 10 410 68 482 60 75 80 82
224 79 l128 -3 0 -37 c0 -20 -5 -49 -12 -63 -10 -22 -8 -28 11 -49 12 -13 38
-32 57 -42 18 -10 34 -24 34 -31 0 -7 -25 -20 -55 -28 -30 -9 -55 -20 -55 -25
0 -5 18 -24 41 -42 22 -18 52 -42 66 -54 32 -26 23 -44 -22 -44 -79 0 -85 -26
-20 -88 52 -50 56 -69 17 -83 l-28 -10 -13 -172 c-20 -288 -41 -407 -113 -652
-16 -55 -37 -118 -45 -140 -8 -22 -21 -56 -28 -75 -36 -98 -114 -274 -154
-350 -11 -19 -33 -61 -50 -93 -17 -31 -31 -63 -31 -71 0 -17 32 -46 52 -46 41
0 285 220 398 359 157 194 316 495 384 731 37 128 45 159 59 230 38 187 47
280 47 511 0 226 -9 328 -42 474 -6 28 -11 63 -9 80 4 66 47 154 100 205 70
68 171 83 243 35 34 -22 45 -25 60 -16 23 14 55 14 64 0 3 -6 -10 -27 -30 -48
-20 -20 -36 -42 -36 -48 0 -7 21 -28 48 -47 71 -53 85 -68 70 -78 -7 -4 -25
-8 -40 -8 -35 0 -39 -8 -30 -60 8 -45 18 -55 67 -65 l30 -7 -25 -18 c-14 -11
-37 -22 -52 -25 -37 -9 -36 -34 3 -71 49 -46 52 -58 28 -101 -21 -37 -29 -87
-54 -353 -9 -95 -34 -248 -51 -306 -8 -28 -14 -59 -14 -69 0 -44 -107 -369
-165 -500 -31 -72 -118 -245 -150 -300 -19 -33 -38 -67 -42 -75 -12 -25 -125
-192 -172 -255 -56 -75 -144 -177 -238 -277 -77 -82 -88 -111 -55 -141 36 -33
84 -21 194 45 241 144 419 298 632 548 158 186 354 520 471 805 58 141 69 173
105 315 26 97 50 310 50 440 0 169 -37 436 -79 561 -6 19 -20 61 -30 94 -40
124 -117 282 -190 388 -133 196 -147 239 -88 293 43 40 97 57 182 59 61 1 74
5 99 28 16 15 37 27 47 27 40 0 119 -49 119 -74 0 -6 -14 -23 -31 -37 -29 -23
-31 -30 -25 -62 8 -42 15 -44 77 -21 37 13 50 13 82 3 39 -13 91 -63 84 -82
-2 -6 -25 -23 -52 -37 -74 -40 -74 -47 -12 -111 63 -65 118 -172 147 -290 5
-20 19 -58 31 -85 17 -38 23 -81 30 -199 4 -82 13 -184 18 -225 36 -263 -26
-769 -124 -1030 -8 -19 -23 -62 -35 -94 -19 -53 -58 -145 -79 -186 -137 -266
-273 -456 -460 -640 -114 -114 -181 -169 -393 -328 -76 -57 -138 -108 -138
-113 0 -16 27 -64 43 -77 11 -10 26 -10 63 -1 61 15 154 43 214 64 43 15 262
122 305 148 104 64 242 166 318 236 176 160 299 317 453 581 65 111 204 397
204 420 0 5 6 24 14 42 35 81 96 272 109 338 3 14 15 68 26 120 87 385 81 864
-16 1295 -20 92 -100 345 -131 415 -106 244 -215 415 -384 602 -172 189 -407
290 -713 304 -170 8 -338 -26 -478 -97 -107 -54 -283 -184 -381 -281 -124
-124 -304 -275 -413 -347 -71 -47 -76 -48 -168 -55 -52 -4 -116 -4 -143 -1
-120 17 -202 126 -202 268 0 116 21 148 191 302 404 364 529 532 601 804 26
101 28 351 2 438 -33 116 -84 240 -127 308 -42 68 -134 179 -193 235 -159 149
-333 237 -594 301 -95 22 -369 34 -495 20z m1066 -703 c20 -37 5 -121 -32
-175 -180 -264 -342 -407 -512 -450 -79 -20 -91 -14 -85 45 6 61 44 135 120
236 115 152 243 262 378 329 86 43 115 46 131 15z m-1629 -5 c24 -9 68 -32 98
-52 74 -49 257 -231 309 -309 77 -114 129 -251 105 -274 -17 -18 -219 63 -289
115 -79 60 -245 236 -245 260 0 3 -13 26 -30 50 -45 66 -103 195 -96 212 8 21
93 20 148 -2z m3617 -2507 c9 -11 9 -19 -1 -36 -16 -26 -61 -24 -66 3 -8 39
42 63 67 33z"/>
</g>
</svg>
