<?xml version="1.0" standalone="no"?>
<!DOCTYPE svg PUBLIC "-//W3C//DTD SVG 20010904//EN"
 "http://www.w3.org/TR/2001/REC-SVG-20010904/DTD/svg10.dtd">
<svg version="1.0" xmlns="http://www.w3.org/2000/svg"
 width="280.000000pt" height="280.000000pt" viewBox="0 0 280.000000 280.000000"
 preserveAspectRatio="xMidYMid meet">
<metadata>
Created by potrace 1.10, written by Peter Selinger 2001-2011
</metadata>
<g transform="translate(0.000000,280.000000) scale(0.100000,-0.100000)"
fill="#000000" stroke="none">
<path d="M1287 2718 c-503 -34 -968 -390 -1140 -874 -55 -153 -72 -264 -71
-459 0 -157 3 -194 26 -290 33 -140 74 -246 139 -360 201 -351 526 -586 917
-661 119 -23 375 -23 494 0 270 52 495 172 688 365 202 203 335 454 381 721
17 98 17 364 0 460 -47 267 -179 518 -376 716 -282 283 -634 410 -1058 382z
m326 -43 c189 -28 427 -128 578 -241 256 -192 445 -500 500 -814 17 -96 17
-362 0 -460 -67 -389 -332 -750 -681 -929 -205 -105 -355 -140 -601 -142 -238
-1 -397 35 -594 134 -131 65 -224 134 -335 246 -268 271 -391 589 -376 971 7
206 39 345 117 507 140 293 402 538 697 652 26 10 56 21 67 26 11 4 25 9 30
10 6 2 30 8 55 15 143 40 375 50 543 25z"/>
<path d="M1260 2669 c-428 -50 -808 -315 -998 -695 -97 -193 -137 -361 -137
-579 0 -343 124 -644 368 -894 243 -248 549 -381 882 -384 143 -1 211 7 325
34 94 23 292 102 311 125 6 8 16 14 21 14 25 0 170 112 256 198 173 173 284
370 349 621 25 96 28 123 28 281 0 132 -5 195 -18 258 -66 300 -231 567 -465
754 -161 128 -382 228 -562 253 -24 4 -47 8 -50 10 -14 9 -245 12 -310 4z
m351 -44 c570 -93 1003 -586 1026 -1171 10 -235 -26 -403 -127 -609 -71 -144
-135 -232 -248 -342 -237 -231 -536 -353 -862 -353 -266 0 -533 87 -740 241
-246 183 -421 459 -487 769 -25 118 -25 363 1 480 53 244 166 458 330 625 295
300 687 428 1107 360z"/>
<path d="M1268 2586 c-114 -31 -228 -134 -262 -238 -9 -28 -16 -81 -16 -118 0
-100 35 -161 166 -293 106 -107 107 -107 101 -148 -8 -61 -30 -79 -95 -79 -62
0 -83 12 -177 101 -135 128 -221 167 -342 156 -122 -12 -205 -66 -283 -185
-54 -82 -100 -206 -121 -327 -17 -98 -6 -309 21 -410 45 -167 144 -339 250
-438 101 -94 291 -187 312 -154 13 20 10 23 -49 68 -186 139 -292 299 -334
503 -32 156 -18 395 27 464 16 24 16 25 -10 18 -24 -6 -25 -5 -14 19 13 28 25
32 30 10 2 -12 7 -11 28 5 l24 18 -27 13 -27 12 22 24 c22 24 22 24 38 4 15
-20 15 -20 27 4 10 22 9 25 -8 25 -29 0 -22 13 16 31 35 16 45 13 24 -8 -8 -8
-1 -10 27 -6 30 4 45 0 64 -15 l25 -21 -22 -38 c-148 -254 -162 -450 -50 -687
82 -172 179 -292 304 -376 72 -48 113 -62 113 -39 0 6 -22 37 -49 68 -109 127
-180 256 -220 401 -29 103 -55 295 -43 317 7 12 4 21 -12 35 l-21 19 23 -6
c18 -5 22 -2 22 14 0 12 -7 21 -15 21 -8 0 -15 7 -15 15 0 13 4 14 21 4 18 -9
20 -8 16 8 -19 67 -19 68 -7 57 8 -9 19 -9 40 -1 68 26 119 -42 99 -134 -15
-68 -6 -266 15 -344 9 -33 37 -102 62 -154 37 -75 62 -110 124 -173 52 -53 82
-76 93 -72 13 5 7 23 -34 107 -48 100 -62 148 -94 312 -10 54 -11 81 -4 84 6
2 3 11 -7 22 -16 18 -16 20 -1 37 22 24 21 32 -3 32 -11 0 -20 5 -20 11 0 6 9
8 20 4 17 -5 20 -2 20 20 0 20 -4 26 -15 21 -9 -3 -15 0 -15 10 0 11 6 13 20
9 18 -6 19 -4 10 20 -16 41 -13 45 36 45 89 0 104 -28 104 -191 0 -184 33
-348 101 -497 23 -52 32 -63 40 -52 13 20 8 403 -5 412 -6 4 -3 15 8 27 18 20
18 21 -10 33 l-29 12 28 4 c32 4 34 13 7 30 -11 7 -20 17 -20 23 0 6 9 9 20 6
24 -6 27 15 5 33 -18 15 -20 40 -3 40 6 0 22 9 34 21 l22 21 36 -28 c40 -32
43 -39 21 -48 -8 -3 -15 -15 -15 -26 0 -17 4 -20 20 -15 15 5 20 2 20 -10 0
-11 -5 -15 -14 -12 -8 3 -16 -2 -19 -14 -4 -14 0 -19 14 -19 11 0 19 -7 19
-16 0 -8 -5 -12 -11 -8 -6 3 -15 0 -20 -7 -14 -22 -11 -29 14 -30 l22 0 -22
-16 c-28 -19 -29 -33 -3 -33 11 0 20 -4 20 -10 0 -5 -9 -10 -20 -10 -24 0 -25
-8 -5 -37 10 -14 12 -24 5 -28 -12 -8 -14 -305 -2 -305 13 0 57 96 86 188 37
117 56 248 56 380 0 158 14 182 107 180 40 0 41 -1 32 -24 -7 -21 -5 -26 18
-37 l26 -11 -29 -12 -29 -12 28 -13 c32 -14 35 -29 7 -29 -26 0 -25 -8 2 -37
18 -20 19 -23 5 -23 -13 0 -17 -9 -17 -39 0 -111 -55 -309 -118 -426 -25 -45
-27 -56 -16 -66 11 -9 30 6 94 70 64 65 88 99 124 173 25 51 52 120 61 153 22
83 30 256 16 339 -11 61 -10 71 7 99 22 39 64 57 92 39 11 -6 26 -9 35 -6 20
8 19 -6 -2 -21 -15 -11 -13 -14 18 -31 31 -17 32 -19 12 -22 -15 -2 -23 -10
-23 -22 0 -11 9 -20 23 -23 l22 -4 -22 -8 c-27 -9 -29 -18 -8 -35 10 -8 12
-17 6 -24 -5 -6 -12 -47 -16 -91 -20 -219 -103 -416 -248 -587 -31 -36 -57
-71 -57 -77 0 -41 156 54 240 146 150 164 250 392 250 568 0 118 -41 253 -108
359 -18 28 -32 57 -32 66 0 19 39 40 73 40 13 0 28 5 34 11 8 8 17 8 32 0 22
-12 29 -31 11 -31 -5 0 -10 -9 -10 -20 0 -22 10 -26 27 -9 9 9 19 7 40 -6 l27
-18 -24 -11 c-36 -14 -35 -14 -13 -39 59 -64 76 -136 76 -322 0 -145 -2 -168
-26 -248 -60 -195 -152 -322 -325 -449 -52 -39 -59 -48 -49 -62 11 -15 17 -15
70 3 103 36 179 83 257 161 166 166 270 426 270 674 0 289 -121 556 -289 639
-59 29 -74 32 -156 32 -113 0 -168 -24 -275 -123 -123 -113 -155 -132 -216
-132 -45 0 -56 4 -73 26 -13 16 -21 41 -21 64 0 33 7 45 62 96 110 105 148
148 176 204 23 48 27 67 27 145 0 97 -15 138 -77 217 -88 112 -296 168 -460
124z m245 -32 c110 -28 180 -80 235 -173 24 -41 27 -56 27 -136 0 -122 -20
-160 -153 -290 -90 -88 -104 -107 -109 -142 -7 -50 16 -97 60 -123 67 -41 130
-18 252 91 144 129 185 149 301 149 137 0 226 -56 309 -195 73 -122 113 -316
102 -498 -15 -261 -143 -523 -318 -652 -41 -31 -139 -85 -153 -85 -3 0 36 42
87 93 186 186 268 408 252 678 -6 110 -24 197 -37 183 -4 -3 -2 13 4 35 9 35
8 45 -6 60 -9 9 -16 25 -16 35 0 9 -25 42 -56 72 -44 45 -60 55 -77 49 -12 -4
-39 -10 -60 -15 -21 -4 -49 -18 -63 -31 -32 -30 -27 -61 17 -125 87 -127 120
-311 84 -477 -18 -87 -99 -251 -167 -342 -48 -63 -186 -191 -195 -181 -2 2 18
32 44 67 80 106 155 268 184 397 15 70 39 263 34 272 -3 5 -1 11 4 15 13 7 6
82 -10 101 -6 7 -9 20 -6 28 14 35 -81 68 -135 47 -16 -6 -37 -25 -48 -43 -19
-31 -20 -44 -14 -178 10 -217 -21 -349 -115 -492 -43 -64 -101 -132 -101 -116
0 3 13 37 29 74 68 159 117 468 85 534 -6 14 -17 37 -23 53 -10 24 -15 27 -61
27 -100 0 -130 -50 -130 -218 0 -131 -21 -263 -59 -379 l-29 -88 -2 65 c-3 79
-2 92 5 155 11 97 14 255 4 261 -6 4 -6 11 1 19 14 17 -2 44 -44 73 -42 29
-64 27 -105 -7 -32 -26 -35 -33 -36 -89 -2 -33 -5 -65 -9 -71 -4 -6 -2 -20 4
-31 6 -12 13 -97 16 -198 4 -169 3 -175 -12 -142 -38 83 -66 223 -70 360 -7
194 -11 215 -46 255 -27 31 -35 35 -81 35 -57 0 -87 -19 -87 -56 0 -13 -4 -25
-9 -28 -8 -5 -7 -70 3 -176 11 -111 47 -265 80 -342 19 -45 34 -83 32 -85 -9
-9 -97 103 -128 164 -73 138 -82 185 -83 403 0 169 -2 198 -18 221 -26 39 -59
53 -108 45 -52 -8 -69 -21 -69 -52 0 -12 -5 -26 -11 -29 -5 -4 -9 -17 -7 -28
1 -12 -1 -28 -5 -34 -4 -7 -3 -22 3 -33 6 -11 8 -25 5 -30 -9 -14 22 -224 46
-310 36 -131 126 -303 203 -388 39 -42 26 -41 -34 3 -100 74 -193 194 -261
339 -71 153 -88 300 -49 451 18 71 30 98 101 222 l24 42 -21 28 c-13 17 -36
32 -62 38 -22 6 -44 13 -48 18 -4 4 -13 7 -20 7 -18 0 -106 -77 -124 -109 -9
-14 -24 -38 -34 -53 -12 -18 -16 -37 -12 -53 4 -14 -1 -65 -10 -113 -31 -166
-9 -364 59 -529 48 -118 161 -259 271 -340 37 -28 31 -29 -28 -3 -205 87 -372
316 -427 584 -36 173 -22 374 36 536 34 94 64 141 128 208 64 65 129 92 232
94 64 1 82 -3 137 -30 35 -17 74 -41 88 -53 14 -13 53 -49 88 -81 83 -77 132
-102 190 -95 66 7 95 40 100 117 l4 60 -104 103 c-131 130 -158 178 -158 286
0 59 6 87 24 126 74 159 275 240 469 189z m845 -1032 c2 -7 -3 -12 -12 -12 -9
0 -16 7 -16 16 0 17 22 14 28 -4z"/>
<path d="M1079 2376 c-22 -48 71 -181 160 -230 88 -48 132 -15 92 68 -64 131
-221 232 -252 162z m108 -35 c54 -39 107 -103 126 -152 l16 -41 -27 7 c-75 18
-144 82 -193 178 l-19 37 28 0 c16 0 47 -13 69 -29z"/>
<path d="M1625 2384 c-65 -35 -160 -144 -169 -195 -5 -30 17 -69 40 -69 51 0
163 96 206 176 41 78 -3 127 -77 88z m69 -20 c13 -33 -81 -157 -142 -188 -50
-25 -72 -29 -72 -11 0 47 83 148 160 194 42 25 46 26 54 5z"/>
</g>
</svg>
